<?xml version="1.0" standalone="no"?>
<!DOCTYPE svg PUBLIC "-//W3C//DTD SVG 20010904//EN"
 "http://www.w3.org/TR/2001/REC-SVG-20010904/DTD/svg10.dtd">
<svg version="1.0" xmlns="http://www.w3.org/2000/svg"
 width="512.000000pt" height="512.000000pt" viewBox="0 0 512.000000 512.000000"
 preserveAspectRatio="xMidYMid meet">

<g transform="translate(0.000000,512.000000) scale(0.100000,-0.100000)"
fill="#000000" stroke="none">
<path d="M2945 4759 c-109 -18 -229 -82 -298 -159 -51 -57 -71 -105 -65 -157
4 -34 3 -36 -131 -138 -167 -127 -373 -298 -548 -456 -112 -101 -142 -123
-198 -143 -123 -45 -191 -110 -202 -195 -5 -37 -26 -62 -216 -258 -211 -220
-468 -503 -607 -670 -49 -60 -90 -98 -118 -112 -92 -45 -162 -133 -162 -202 0
-25 -16 -54 -69 -123 -165 -216 -232 -377 -234 -556 -2 -151 36 -252 154 -406
38 -51 79 -113 90 -140 31 -68 22 -160 -26 -284 -44 -111 -56 -205 -33 -260
38 -90 115 -142 209 -142 86 0 136 30 174 107 27 53 30 70 29 145 -1 75 -7
102 -49 220 -74 211 -86 259 -87 340 -2 77 22 172 62 250 l18 35 437 63 c240
34 441 59 447 56 5 -3 30 -49 55 -101 52 -110 102 -164 167 -183 49 -13 72 -9
132 26 57 32 96 96 139 225 20 60 42 112 48 116 6 3 108 19 226 34 l216 28 17
-22 c10 -12 25 -44 34 -71 24 -72 14 -142 -37 -256 -67 -151 -60 -226 31 -287
39 -27 112 -31 163 -9 76 33 128 127 128 234 0 81 -4 96 -70 243 -30 68 -51
130 -51 151 0 36 0 36 53 42 279 32 1000 43 1252 18 271 -26 356 -41 388 -68
68 -58 105 -69 217 -69 93 0 112 3 162 27 116 54 205 169 227 293 9 47 8 88
-4 183 -77 623 -319 1196 -711 1687 -112 140 -356 384 -499 498 -188 151 -493
344 -665 420 -66 30 -127 38 -195 26z m295 -123 c177 -96 357 -213 510 -332
138 -107 415 -381 525 -519 266 -333 478 -742 595 -1148 28 -96 80 -323 80
-348 0 -6 -16 3 -36 21 -46 40 -73 50 -138 50 -72 0 -140 -22 -211 -70 -67
-45 -83 -48 -114 -22 -16 13 -25 42 -40 132 -153 901 -774 1706 -1575 2041
-160 68 -189 105 -125 163 83 76 193 117 304 113 79 -2 81 -3 225 -81z m-625
-276 c3 -5 75 -44 159 -85 531 -261 953 -686 1221 -1230 159 -323 238 -600
280 -989 l7 -59 -59 7 c-151 17 -272 26 -432 32 -163 7 -172 8 -145 22 18 10
69 18 129 21 81 5 100 9 103 22 4 24 -68 33 -154 19 -90 -15 -179 -58 -256
-125 -35 -30 -79 -63 -98 -72 -49 -25 -128 -21 -236 11 -175 51 -307 33 -390
-56 -85 -89 -86 -171 -5 -350 58 -131 74 -200 60 -272 -18 -98 -77 -156 -159
-156 -60 0 -105 28 -120 75 -16 48 -7 90 43 199 38 83 42 98 42 171 0 73 -3
86 -36 145 -63 115 -157 167 -287 158 -78 -6 -139 -33 -195 -87 -47 -44 -67
-82 -103 -192 -37 -115 -67 -172 -110 -208 -46 -37 -83 -46 -128 -31 -49 16
-91 68 -142 176 -51 106 -120 198 -197 262 -107 88 -335 178 -326 127 3 -12
22 -23 64 -35 70 -19 137 -53 115 -57 -8 -1 -91 -14 -184 -28 -132 -19 -184
-31 -234 -55 -170 -80 -324 -339 -323 -545 0 -91 14 -149 69 -296 40 -107 72
-228 72 -273 0 -56 -23 -129 -51 -161 -74 -84 -227 -57 -279 51 -31 63 -24
140 25 264 47 117 57 216 30 285 -9 25 -57 99 -105 165 -95 129 -124 190 -141
299 -19 123 18 284 97 427 36 66 171 254 182 254 4 0 13 -9 19 -19 21 -33 97
-71 174 -87 118 -25 267 -6 372 48 54 27 127 97 143 135 66 155 -96 275 -349
260 l-99 -6 58 67 c246 284 320 365 592 650 l185 193 31 -30 c17 -16 54 -40
81 -53 44 -20 65 -23 175 -23 138 1 192 15 284 76 89 59 121 159 73 230 -44
66 -114 97 -241 108 l-70 6 105 94 c192 173 628 529 651 530 4 1 10 -3 13 -9z
m-646 -670 c62 -12 121 -38 128 -57 13 -35 -7 -62 -63 -83 -59 -22 -75 -22
-49 0 36 30 2 90 -52 90 -24 0 -56 -27 -48 -41 4 -5 23 -9 43 -9 l37 0 -23
-18 c-15 -12 -21 -24 -16 -35 5 -15 -1 -17 -40 -17 -39 0 -46 3 -46 20 0 17
-7 20 -44 20 -41 0 -43 1 -38 26 4 22 2 25 -19 22 -16 -2 -25 -11 -27 -25 -2
-13 -6 -23 -10 -23 -11 0 -62 54 -62 66 0 14 87 51 150 63 63 12 119 13 179 1z
m-987 -1230 c70 -26 83 -40 71 -77 -9 -28 -51 -55 -108 -69 l-27 -7 17 27 c16
24 16 28 1 51 -20 30 -59 41 -93 26 -34 -16 -24 -35 20 -39 41 -4 49 -17 16
-27 -14 -5 -19 -13 -16 -25 6 -22 -11 -30 -62 -30 -33 0 -37 3 -37 23 1 20 -4
22 -44 22 -43 0 -45 1 -42 28 3 22 -1 27 -17 27 -13 0 -26 -10 -33 -25 -6 -14
-15 -25 -19 -25 -10 0 -59 59 -59 71 0 14 81 48 153 65 82 18 206 11 279 -16z
m2923 -470 c83 -5 200 -15 261 -21 l112 -12 11 -57 c6 -31 20 -74 31 -94 l19
-39 -57 7 c-437 53 -968 59 -1436 15 -60 -5 -111 -8 -113 -5 -10 10 33 67 68
91 76 53 185 60 320 20 177 -52 240 -43 350 50 l64 54 110 0 c61 0 178 -4 260
-9z m-1485 -207 c30 -14 48 -28 40 -29 -26 -6 -327 -44 -344 -44 -27 0 -18 16
23 45 90 62 190 72 281 28z m-1033 -53 c28 -22 62 -55 77 -74 l27 -35 -23 -6
c-30 -6 -392 -59 -588 -85 -85 -11 -168 -23 -183 -26 -26 -5 -28 -4 -18 14 6
11 34 45 62 76 80 88 137 110 364 145 105 16 200 29 211 30 12 1 44 -17 71
-39z"/>
<path d="M4000 3924 c0 -9 27 -46 61 -82 34 -37 95 -109 136 -160 67 -84 77
-92 91 -79 13 14 8 23 -42 89 -150 193 -246 283 -246 232z"/>
<path d="M2500 3938 c-118 -60 -63 -168 85 -168 86 0 145 39 145 95 0 37 -23
61 -77 81 -56 19 -103 17 -153 -8z m165 -42 c55 -36 9 -86 -79 -86 -56 0 -92
13 -106 39 -20 38 41 73 117 67 24 -2 54 -11 68 -20z"/>
<path d="M2975 3630 c-149 -24 -284 -96 -342 -184 -27 -40 -33 -58 -33 -103 0
-63 14 -95 67 -144 83 -80 192 -114 358 -113 134 1 212 17 307 65 115 58 178
138 178 225 0 110 -91 197 -255 241 -67 18 -206 24 -280 13z m264 -56 c92 -20
175 -70 179 -106 2 -15 -2 -36 -7 -47 -13 -23 -97 -57 -166 -65 -49 -7 -50 -7
-19 7 51 24 59 73 18 106 -44 34 -125 24 -110 -14 4 -12 13 -15 27 -12 27 7
72 -10 64 -24 -4 -5 -18 -14 -31 -19 -25 -10 -33 -40 -11 -41 6 0 1 -5 -12
-10 -27 -11 -149 0 -131 11 28 17 3 35 -48 35 -59 0 -71 8 -54 36 10 15 10 24
2 34 -16 19 -40 7 -54 -27 l-12 -29 -27 22 c-26 20 -57 68 -57 87 0 12 68 42
132 57 75 19 236 18 317 -1z"/>
<path d="M2180 3309 c-101 -42 -89 -140 21 -169 50 -14 122 -7 156 15 97 64
47 157 -87 162 -36 2 -76 -2 -90 -8z m171 -56 c29 -29 12 -59 -43 -74 -104
-28 -209 41 -130 86 40 23 146 16 173 -12z"/>
<path d="M1428 3148 c-52 -14 -88 -50 -88 -88 0 -114 254 -129 294 -17 25 70
-100 135 -206 105z m142 -57 c32 -23 32 -39 -2 -64 -53 -40 -188 -17 -188 32
0 55 127 76 190 32z"/>
<path d="M1923 2936 c-173 -33 -340 -115 -413 -204 -70 -85 -90 -192 -51 -277
57 -127 245 -226 462 -244 381 -31 729 138 756 368 17 144 -113 280 -327 341
-97 28 -320 36 -427 16z m407 -56 c82 -24 157 -58 208 -96 25 -20 32 -32 32
-60 0 -52 -16 -73 -75 -99 -117 -52 -280 -75 -419 -60 -64 6 -67 8 -46 22 35
24 10 40 -55 35 -40 -3 -61 0 -80 12 -29 19 -31 29 -10 50 21 21 19 46 -4 46
-24 0 -51 -36 -51 -68 0 -19 -3 -21 -17 -13 -50 26 -123 122 -123 159 0 21
157 75 265 92 95 14 288 4 375 -20z"/>
<path d="M2183 2744 c-7 -3 -13 -14 -13 -24 0 -17 7 -19 48 -17 81 3 111 -42
47 -69 -36 -15 -46 -40 -21 -50 20 -8 73 22 92 51 31 48 -17 106 -93 111 -26
2 -54 1 -60 -2z"/>
<path d="M2971 2882 c-19 -9 -44 -30 -55 -45 -19 -25 -19 -30 -6 -54 33 -58
97 -82 184 -69 123 19 144 133 33 175 -43 16 -118 13 -156 -7z m154 -36 c26
-11 35 -21 35 -39 0 -62 -163 -78 -207 -21 -39 52 86 96 172 60z"/>
<path d="M3475 2718 c-117 -22 -234 -106 -250 -180 -27 -119 95 -214 285 -225
180 -11 341 60 385 169 21 54 13 98 -27 144 -75 85 -233 123 -393 92z m252
-54 c109 -31 136 -95 53 -128 -56 -22 -74 -21 -60 3 14 28 13 38 -10 61 -25
25 -88 28 -97 4 -7 -18 13 -35 33 -27 25 9 36 -8 15 -23 -11 -8 -18 -21 -15
-29 5 -12 -3 -15 -40 -15 -35 0 -44 3 -40 14 7 19 -15 31 -53 27 -29 -2 -32 0
-30 26 2 22 -2 28 -18 28 -11 0 -24 -10 -31 -22 l-11 -23 -28 30 c-15 16 -25
35 -22 43 5 13 85 39 157 51 39 7 140 -3 197 -20z"/>
<path d="M2735 2248 c-72 -40 -87 -98 -35 -142 73 -61 215 -42 259 36 19 33
-1 74 -49 99 -39 21 -142 25 -175 7z m154 -43 c38 -19 45 -41 21 -65 -50 -50
-200 -28 -200 30 0 43 119 67 179 35z"/>
<path d="M1490 2045 c-51 -24 -70 -45 -70 -79 1 -60 56 -96 147 -96 68 0 121
23 143 63 13 24 13 30 0 54 -25 44 -62 64 -126 69 -40 3 -70 0 -94 -11z m159
-47 c29 -18 33 -34 12 -59 -14 -18 -31 -23 -78 -27 -111 -8 -164 49 -83 91 39
20 113 18 149 -5z"/>
<path d="M380 1862 c-78 -39 -78 -110 0 -149 117 -60 279 15 229 105 -21 38
-74 62 -139 62 -32 0 -69 -7 -90 -18z m182 -49 c12 -13 18 -28 15 -38 -8 -20
-67 -45 -107 -45 -40 0 -99 25 -106 45 -7 18 11 43 41 56 37 16 134 5 157 -18z"/>
</g>
</svg>
